<svg xmlns="http://www.w3.org/2000/svg" width="576" height="576" viewBox="0 0 576 576" shape-rendering="crispEdges">
  <defs>
    <pattern id="grass" width="12" height="12" patternUnits="userSpaceOnUse">
      <rect width="12" height="12" fill="#79bd68"/>
      <path d="M2 9h2V7h2v2h2" fill="none" stroke="#4f8f5b" stroke-width="1"/>
    </pattern>
    <pattern id="water" width="16" height="12" patternUnits="userSpaceOnUse">
      <rect width="16" height="12" fill="#4f91bd"/>
      <path d="M0 4h5v-2h6v2h5M4 10h7V8h5" fill="none" stroke="#77b9d5" stroke-width="2"/>
    </pattern>
    <pattern id="stone" width="16" height="16" patternUnits="userSpaceOnUse">
      <rect width="16" height="16" fill="#736f68"/>
      <path d="M0 8h16M6 0v8M12 8v8" stroke="#5a5752" stroke-width="2"/>
      <path d="M1 1h4M7 9h4" stroke="#918b80"/>
    </pattern>
  </defs>
  <rect width="576" height="576" fill="#182536"/>
  <g transform="translate(0 0)"><rect width="48" height="48" fill="url(#grass)"/></g>
  <g transform="translate(48 0)"><rect width="48" height="48" fill="#d7bd72"/><path d="M0 8h48M0 40h48" stroke="#c19d58" stroke-width="4"/></g>
  <g transform="translate(96 0)"><rect width="48" height="48" fill="url(#water)"/></g>
  <g transform="translate(144 0)"><rect width="48" height="48" fill="url(#stone)"/></g>
  <g transform="translate(192 0)"><rect width="48" height="48" fill="#5a443d"/><path d="M2 12h12l5-7 8 14 7-8 12 14" fill="none" stroke="#e46a3a" stroke-width="5"/></g>
  <g transform="translate(240 0)"><rect width="48" height="48" fill="#c6e1e8"/><path d="M2 36l13-18 9 8 10-18 12 28" fill="#9bc6d5"/></g>
  <g transform="translate(288 0)"><rect width="48" height="48" fill="#557b68"/><path d="M0 14h48M6 34h36" stroke="#729783" stroke-width="3"/></g>
  <g transform="translate(336 0)"><rect width="48" height="48" fill="#91b9ce"/><path d="M0 30h48v18h-48z" fill="#6d8f83"/></g>
  <g transform="translate(384 0)"><rect width="48" height="48" fill="#8a8069"/><path d="M4 44V8h40v36M12 44V20h24v24" fill="none" stroke="#5f625e" stroke-width="5"/></g>
  <g transform="translate(432 0)"><rect width="48" height="48" fill="#b3a47c"/><path d="M0 24h48M24 0v48" stroke="#736f68" stroke-width="4"/></g>
  <g transform="translate(480 0)"><rect width="48" height="48" fill="#583d45"/><path d="M0 10h48M8 38h32" stroke="#80606b" stroke-width="4"/></g>
  <g transform="translate(528 0)"><rect width="48" height="48" fill="#d9edf2"/><path d="M0 18h48M8 38h34" stroke="#a9d3df" stroke-width="3"/></g>
  <g transform="translate(0 48)"><rect width="48" height="48" fill="#4f6f57"/><circle cx="24" cy="24" r="14" fill="#6e986c"/></g>
  <g transform="translate(48 48)"><rect width="48" height="48" fill="#6a635c"/><path d="M6 42l8-30h27l5 30" fill="#8e8174" stroke="#514d49" stroke-width="3"/></g>
  <g transform="translate(96 48)"><rect width="48" height="48" fill="#645963"/><path d="M0 20h48M12 4v40M36 4v40" stroke="#847184" stroke-width="3"/></g>
  <g transform="translate(144 48)"><rect width="48" height="48" fill="#394d61"/><path d="M4 44l8-24 8 10 8-20 16 34" fill="#637d8f"/></g>
  <g transform="translate(192 48)"><rect width="48" height="48" fill="#68aa5d"/><path d="M4 10h4v5h3v-4h4M29 31h4v5h3v-4h4" fill="none" stroke="#a5d47e" stroke-width="2"/></g>
  <g transform="translate(240 48)"><rect width="48" height="48" fill="#d7bd72"/><path d="M4 14h40M4 34h40" stroke="#e8d38d" stroke-width="3"/></g>
  <g transform="translate(288 48)"><rect width="48" height="48" fill="#3f82ad"/><path d="M4 12h18M26 30h18" stroke="#79c4df" stroke-width="3"/></g>
  <g transform="translate(336 48)"><rect width="48" height="48" fill="#605d58"/><path d="M6 8h36v32h-36z" fill="#7f7971"/></g>
  <g transform="translate(384 48)"><rect width="48" height="48" fill="#8d4b32"/><circle cx="24" cy="24" r="13" fill="#f18b3f"/></g>
  <g transform="translate(432 48)"><rect width="48" height="48" fill="#b9dce5"/><path d="M4 40l12-28 10 16 8-18 10 30" fill="#e1f1f3"/></g>
  <g transform="translate(480 48)"><rect width="48" height="48" fill="#456657"/><circle cx="14" cy="19" r="8" fill="#738f68"/><circle cx="35" cy="31" r="10" fill="#617f61"/></g>
  <g transform="translate(528 48)"><rect width="48" height="48" fill="#789fb4"/><path d="M4 40h40V12h-40z" fill="#a8c6c1"/></g>
  <g transform="translate(0 96)"><rect width="48" height="48" fill="url(#grass)"/><circle cx="12" cy="14" r="2" fill="#f06b75"/><circle cx="35" cy="32" r="2" fill="#f3d46a"/></g>
  <g transform="translate(48 96)"><rect width="48" height="48" fill="#d7bd72"/><path d="M0 0l48 48M48 0L0 48" stroke="#c19d58" stroke-width="5"/></g>
  <g transform="translate(96 96)"><rect width="48" height="48" fill="url(#water)"/><path d="M10 34h28l-6 8h-16z" fill="#8f7955"/></g>
  <g transform="translate(144 96)"><rect width="48" height="48" fill="url(#stone)"/><path d="M4 42l10-25 8 9 9-18 13 34" fill="#918b80"/></g>
  <g transform="translate(192 96)"><rect width="48" height="48" fill="#79bd68"/><path d="M6 40V12h36v28" fill="#5e965c"/></g>
  <g transform="translate(240 96)"><rect width="48" height="48" fill="#4f91bd"/><circle cx="24" cy="24" r="15" fill="#79bd68"/><path d="M24 9v15h15" fill="#4f91bd"/></g>
  <g transform="translate(288 96)"><rect width="48" height="48" fill="#736f68"/><path d="M8 40l5-28h22l5 28z" fill="#9a9184"/></g>
  <g transform="translate(336 96)"><rect width="48" height="48" fill="#182536"/><path d="M6 42V14h36v28M14 42V24h20v18" fill="#4f6f57" stroke="#91b9ce" stroke-width="2"/></g>
  <g transform="translate(384 96)"><rect width="48" height="48" fill="url(#grass)"/><path d="M8 48V22h6V10h20v12h6v26" fill="#526e42"/><circle cx="24" cy="13" r="12" fill="#4f8f5b"/></g>
  <g transform="translate(432 96)"><rect width="48" height="48" fill="url(#grass)"/><circle cx="17" cy="31" r="10" fill="#4f8f5b"/><circle cx="35" cy="25" r="12" fill="#6aa65e"/></g>
  <g transform="translate(480 96)"><rect width="48" height="48" fill="url(#grass)"/><circle cx="16" cy="24" r="3" fill="#e95e68"/><circle cx="32" cy="30" r="3" fill="#f2d95f"/></g>
  <g transform="translate(528 96)"><rect width="48" height="48" fill="url(#stone)"/><path d="M9 39l5-20 9-7 13 27z" fill="#9b9184"/></g>
  <g transform="translate(0 144)"><rect width="48" height="48" fill="#79bd68"/><path d="M4 18h40M10 8v30M24 8v30M38 8v30" stroke="#d2d0c2" stroke-width="4"/></g>
  <g transform="translate(48 144)"><rect width="48" height="48" fill="#d7bd72"/><path d="M22 44V15h5v29M16 15h18v9h-18z" fill="#826e54"/></g>
  <g transform="translate(96 144)"><rect width="48" height="48" fill="#79bd68"/><path d="M4 44V18l20-14 20 14v26" fill="#4f91bd" stroke="#182536" stroke-width="3"/></g>
  <g transform="translate(144 144)"><rect width="48" height="48" fill="#736f68"/><path d="M8 44V10h32v34M16 44V25h16v19" fill="#918b80" stroke="#514d49" stroke-width="3"/></g>
  <g transform="translate(192 144)"><rect width="48" height="48" fill="url(#grass)"/><rect x="7" y="7" width="34" height="34" fill="#8fd27c" stroke="#eef8c9" stroke-width="3"/></g>
  <g transform="translate(240 144)"><rect width="48" height="48" fill="url(#water)"/><circle cx="24" cy="24" r="17" fill="#82a86c" stroke="#d9e8a1" stroke-width="3"/></g>
  <g transform="translate(288 144)"><rect width="48" height="48" fill="url(#stone)"/><path d="M8 40l4-28h32l4 28z" fill="#918b80" stroke="#d7c99c" stroke-width="3"/></g>
  <g transform="translate(192 240)"><rect width="48" height="48" fill="#79bd68"/><rect y="6" width="48" height="36" fill="#d7bd72"/><path d="M0 6h48M0 42h48" stroke="#c19d58" stroke-width="3"/></g>
  <g transform="translate(240 240)"><rect width="48" height="48" fill="#79bd68"/><rect x="6" width="36" height="48" fill="#d7bd72"/><path d="M6 0v48M42 0v48" stroke="#c19d58" stroke-width="3"/></g>
  <g transform="translate(288 240)"><rect width="48" height="48" fill="#79bd68"/><path d="M6 48V6h42v36H42V12H12v36z" fill="#d7bd72"/><path d="M6 48V6h42M12 48V12h36" fill="none" stroke="#c19d58" stroke-width="3"/></g>
  <g transform="translate(336 240)"><rect width="48" height="48" fill="#79bd68"/><path d="M6 6h36v36H6z" fill="#d7bd72"/><rect y="6" width="48" height="36" fill="#d7bd72"/><rect x="6" width="36" height="48" fill="#d7bd72"/><path d="M6 0v6H0M42 0v6h6M6 48v-6H0M42 48v-6h6" fill="none" stroke="#c19d58" stroke-width="3"/></g>
  <g transform="translate(384 240)"><rect width="48" height="48" fill="#79bd68"/><rect y="6" width="48" height="36" fill="#d7bd72"/><path d="M0 6h48M0 42h48" stroke="#c19d58" stroke-width="3"/><path d="M10 12v24M10 24h20l-7-6M30 24l-7 6" fill="none" stroke="#8a6a34" stroke-width="4"/></g>
  <g transform="translate(432 240)"><rect width="48" height="48" fill="#79bd68"/><rect y="6" width="48" height="36" fill="#d7bd72"/><path d="M0 6h48M0 42h48" stroke="#c19d58" stroke-width="3"/><path d="M38 12v24M38 24H18l7-6M18 24l7 6" fill="none" stroke="#8a6a34" stroke-width="4"/></g>
  <g transform="translate(480 240)"><rect width="48" height="48" fill="#4f91bd"/><rect y="6" width="48" height="36" fill="#c9b98a"/><path d="M0 6h48M0 42h48" stroke="#8f7955" stroke-width="3"/></g>
  <g transform="translate(528 240)"><rect width="48" height="48" fill="#4f91bd"/><rect x="6" width="36" height="48" fill="#c9b98a"/><path d="M6 0v48M42 0v48" stroke="#8f7955" stroke-width="3"/></g>
  <g transform="translate(0 288)"><rect width="48" height="48" fill="#4f91bd"/><path d="M6 48V6h42v36H42V12H12v36z" fill="#c9b98a"/><path d="M6 48V6h42M12 48V12h36" fill="none" stroke="#8f7955" stroke-width="3"/></g>
  <g transform="translate(48 288)"><rect width="48" height="48" fill="#4f91bd"/><path d="M6 6h36v36H6z" fill="#c9b98a"/><rect y="6" width="48" height="36" fill="#c9b98a"/><rect x="6" width="36" height="48" fill="#c9b98a"/><path d="M6 0v6H0M42 0v6h6M6 48v-6H0M42 48v-6h6" fill="none" stroke="#8f7955" stroke-width="3"/></g>
  <g transform="translate(96 288)"><rect width="48" height="48" fill="#4f91bd"/><rect y="6" width="48" height="36" fill="#c9b98a"/><path d="M0 6h48M0 42h48" stroke="#8f7955" stroke-width="3"/><path d="M10 12v24M10 24h20l-7-6M30 24l-7 6" fill="none" stroke="#5c4a2e" stroke-width="4"/></g>
  <g transform="translate(144 288)"><rect width="48" height="48" fill="#4f91bd"/><rect y="6" width="48" height="36" fill="#c9b98a"/><path d="M0 6h48M0 42h48" stroke="#8f7955" stroke-width="3"/><path d="M38 12v24M38 24H18l7-6M18 24l7 6" fill="none" stroke="#5c4a2e" stroke-width="4"/></g>
  <g transform="translate(192 288)"><rect width="48" height="48" fill="#4a4744"/><rect y="6" width="48" height="36" fill="#918b80"/><path d="M0 6h48M0 42h48" stroke="#5a5752" stroke-width="3"/></g>
  <g transform="translate(240 288)"><rect width="48" height="48" fill="#4a4744"/><rect x="6" width="36" height="48" fill="#918b80"/><path d="M6 0v48M42 0v48" stroke="#5a5752" stroke-width="3"/></g>
  <g transform="translate(288 288)"><rect width="48" height="48" fill="#4a4744"/><path d="M6 48V6h42v36H42V12H12v36z" fill="#918b80"/><path d="M6 48V6h42M12 48V12h36" fill="none" stroke="#5a5752" stroke-width="3"/></g>
  <g transform="translate(336 288)"><rect width="48" height="48" fill="#4a4744"/><path d="M6 6h36v36H6z" fill="#918b80"/><rect y="6" width="48" height="36" fill="#918b80"/><rect x="6" width="36" height="48" fill="#918b80"/><path d="M6 0v6H0M42 0v6h6M6 48v-6H0M42 48v-6h6" fill="none" stroke="#5a5752" stroke-width="3"/></g>
  <g transform="translate(384 288)"><rect width="48" height="48" fill="#4a4744"/><rect y="6" width="48" height="36" fill="#918b80"/><path d="M0 6h48M0 42h48" stroke="#5a5752" stroke-width="3"/><path d="M10 12v24M10 24h20l-7-6M30 24l-7 6" fill="none" stroke="#d7c99c" stroke-width="4"/></g>
  <g transform="translate(432 288)"><rect width="48" height="48" fill="#4a4744"/><rect y="6" width="48" height="36" fill="#918b80"/><path d="M0 6h48M0 42h48" stroke="#5a5752" stroke-width="3"/><path d="M38 12v24M38 24H18l7-6M18 24l7 6" fill="none" stroke="#d7c99c" stroke-width="4"/></g>
  <g transform="translate(480 288)"><rect width="48" height="48" fill="#3a2c2a"/><rect y="6" width="48" height="36" fill="#6a5450"/><path d="M0 6h48M0 42h48" stroke="#e46a3a" stroke-width="3"/></g>
  <g transform="translate(528 288)"><rect width="48" height="48" fill="#3a2c2a"/><rect x="6" width="36" height="48" fill="#6a5450"/><path d="M6 0v48M42 0v48" stroke="#e46a3a" stroke-width="3"/></g>
  <g transform="translate(0 336)"><rect width="48" height="48" fill="#3a2c2a"/><path d="M6 48V6h42v36H42V12H12v36z" fill="#6a5450"/><path d="M6 48V6h42M12 48V12h36" fill="none" stroke="#e46a3a" stroke-width="3"/></g>
  <g transform="translate(48 336)"><rect width="48" height="48" fill="#3a2c2a"/><path d="M6 6h36v36H6z" fill="#6a5450"/><rect y="6" width="48" height="36" fill="#6a5450"/><rect x="6" width="36" height="48" fill="#6a5450"/><path d="M6 0v6H0M42 0v6h6M6 48v-6H0M42 48v-6h6" fill="none" stroke="#e46a3a" stroke-width="3"/></g>
  <g transform="translate(96 336)"><rect width="48" height="48" fill="#3a2c2a"/><rect y="6" width="48" height="36" fill="#6a5450"/><path d="M0 6h48M0 42h48" stroke="#e46a3a" stroke-width="3"/><path d="M10 12v24M10 24h20l-7-6M30 24l-7 6" fill="none" stroke="#f1a03f" stroke-width="4"/></g>
  <g transform="translate(144 336)"><rect width="48" height="48" fill="#3a2c2a"/><rect y="6" width="48" height="36" fill="#6a5450"/><path d="M0 6h48M0 42h48" stroke="#e46a3a" stroke-width="3"/><path d="M38 12v24M38 24H18l7-6M18 24l7 6" fill="none" stroke="#f1a03f" stroke-width="4"/></g>
  <g transform="translate(192 336)"><rect width="48" height="48" fill="#c6e1e8"/><rect y="6" width="48" height="36" fill="#e8f2f5"/><path d="M0 6h48M0 42h48" stroke="#a9d3df" stroke-width="3"/></g>
  <g transform="translate(240 336)"><rect width="48" height="48" fill="#c6e1e8"/><rect x="6" width="36" height="48" fill="#e8f2f5"/><path d="M6 0v48M42 0v48" stroke="#a9d3df" stroke-width="3"/></g>
  <g transform="translate(288 336)"><rect width="48" height="48" fill="#c6e1e8"/><path d="M6 48V6h42v36H42V12H12v36z" fill="#e8f2f5"/><path d="M6 48V6h42M12 48V12h36" fill="none" stroke="#a9d3df" stroke-width="3"/></g>
  <g transform="translate(336 336)"><rect width="48" height="48" fill="#c6e1e8"/><path d="M6 6h36v36H6z" fill="#e8f2f5"/><rect y="6" width="48" height="36" fill="#e8f2f5"/><rect x="6" width="36" height="48" fill="#e8f2f5"/><path d="M6 0v6H0M42 0v6h6M6 48v-6H0M42 48v-6h6" fill="none" stroke="#a9d3df" stroke-width="3"/></g>
  <g transform="translate(384 336)"><rect width="48" height="48" fill="#c6e1e8"/><rect y="6" width="48" height="36" fill="#e8f2f5"/><path d="M0 6h48M0 42h48" stroke="#a9d3df" stroke-width="3"/><path d="M10 12v24M10 24h20l-7-6M30 24l-7 6" fill="none" stroke="#5f8fa8" stroke-width="4"/></g>
  <g transform="translate(432 336)"><rect width="48" height="48" fill="#c6e1e8"/><rect y="6" width="48" height="36" fill="#e8f2f5"/><path d="M0 6h48M0 42h48" stroke="#a9d3df" stroke-width="3"/><path d="M38 12v24M38 24H18l7-6M18 24l7 6" fill="none" stroke="#5f8fa8" stroke-width="4"/></g>
  <g transform="translate(480 336)"><rect width="48" height="48" fill="#4f6f57"/><rect y="6" width="48" height="36" fill="#6b5a44"/><path d="M0 6h48M0 42h48" stroke="#4a3d2e" stroke-width="3"/></g>
  <g transform="translate(528 336)"><rect width="48" height="48" fill="#4f6f57"/><rect x="6" width="36" height="48" fill="#6b5a44"/><path d="M6 0v48M42 0v48" stroke="#4a3d2e" stroke-width="3"/></g>
  <g transform="translate(0 384)"><rect width="48" height="48" fill="#4f6f57"/><path d="M6 48V6h42v36H42V12H12v36z" fill="#6b5a44"/><path d="M6 48V6h42M12 48V12h36" fill="none" stroke="#4a3d2e" stroke-width="3"/></g>
  <g transform="translate(48 384)"><rect width="48" height="48" fill="#4f6f57"/><path d="M6 6h36v36H6z" fill="#6b5a44"/><rect y="6" width="48" height="36" fill="#6b5a44"/><rect x="6" width="36" height="48" fill="#6b5a44"/><path d="M6 0v6H0M42 0v6h6M6 48v-6H0M42 48v-6h6" fill="none" stroke="#4a3d2e" stroke-width="3"/></g>
  <g transform="translate(96 384)"><rect width="48" height="48" fill="#4f6f57"/><rect y="6" width="48" height="36" fill="#6b5a44"/><path d="M0 6h48M0 42h48" stroke="#4a3d2e" stroke-width="3"/><path d="M10 12v24M10 24h20l-7-6M30 24l-7 6" fill="none" stroke="#c9b98a" stroke-width="4"/></g>
  <g transform="translate(144 384)"><rect width="48" height="48" fill="#4f6f57"/><rect y="6" width="48" height="36" fill="#6b5a44"/><path d="M0 6h48M0 42h48" stroke="#4a3d2e" stroke-width="3"/><path d="M38 12v24M38 24H18l7-6M18 24l7 6" fill="none" stroke="#c9b98a" stroke-width="4"/></g>
  <g transform="translate(192 384)"><rect width="48" height="48" fill="#557b68"/><rect y="6" width="48" height="36" fill="#b9c9d4"/><path d="M0 6h48M0 42h48" stroke="#8fa8b8" stroke-width="3"/></g>
  <g transform="translate(240 384)"><rect width="48" height="48" fill="#557b68"/><rect x="6" width="36" height="48" fill="#b9c9d4"/><path d="M6 0v48M42 0v48" stroke="#8fa8b8" stroke-width="3"/></g>
  <g transform="translate(288 384)"><rect width="48" height="48" fill="#557b68"/><path d="M6 48V6h42v36H42V12H12v36z" fill="#b9c9d4"/><path d="M6 48V6h42M12 48V12h36" fill="none" stroke="#8fa8b8" stroke-width="3"/></g>
  <g transform="translate(336 384)"><rect width="48" height="48" fill="#557b68"/><path d="M6 6h36v36H6z" fill="#b9c9d4"/><rect y="6" width="48" height="36" fill="#b9c9d4"/><rect x="6" width="36" height="48" fill="#b9c9d4"/><path d="M6 0v6H0M42 0v6h6M6 48v-6H0M42 48v-6h6" fill="none" stroke="#8fa8b8" stroke-width="3"/></g>
  <g transform="translate(384 384)"><rect width="48" height="48" fill="#557b68"/><rect y="6" width="48" height="36" fill="#b9c9d4"/><path d="M0 6h48M0 42h48" stroke="#8fa8b8" stroke-width="3"/><path d="M10 12v24M10 24h20l-7-6M30 24l-7 6" fill="none" stroke="#6e986c" stroke-width="4"/></g>
  <g transform="translate(432 384)"><rect width="48" height="48" fill="#557b68"/><rect y="6" width="48" height="36" fill="#b9c9d4"/><path d="M0 6h48M0 42h48" stroke="#8fa8b8" stroke-width="3"/><path d="M38 12v24M38 24H18l7-6M18 24l7 6" fill="none" stroke="#6e986c" stroke-width="4"/></g>
  <g transform="translate(480 384)"><rect width="48" height="48" fill="#7f9a72"/><rect y="6" width="48" height="36" fill="#d8cdb4"/><path d="M0 6h48M0 42h48" stroke="#b3a47c" stroke-width="3"/></g>
  <g transform="translate(528 384)"><rect width="48" height="48" fill="#7f9a72"/><rect x="6" width="36" height="48" fill="#d8cdb4"/><path d="M6 0v48M42 0v48" stroke="#b3a47c" stroke-width="3"/></g>
  <g transform="translate(0 432)"><rect width="48" height="48" fill="#7f9a72"/><path d="M6 48V6h42v36H42V12H12v36z" fill="#d8cdb4"/><path d="M6 48V6h42M12 48V12h36" fill="none" stroke="#b3a47c" stroke-width="3"/></g>
  <g transform="translate(48 432)"><rect width="48" height="48" fill="#7f9a72"/><path d="M6 6h36v36H6z" fill="#d8cdb4"/><rect y="6" width="48" height="36" fill="#d8cdb4"/><rect x="6" width="36" height="48" fill="#d8cdb4"/><path d="M6 0v6H0M42 0v6h6M6 48v-6H0M42 48v-6h6" fill="none" stroke="#b3a47c" stroke-width="3"/></g>
  <g transform="translate(96 432)"><rect width="48" height="48" fill="#7f9a72"/><rect y="6" width="48" height="36" fill="#d8cdb4"/><path d="M0 6h48M0 42h48" stroke="#b3a47c" stroke-width="3"/><path d="M10 12v24M10 24h20l-7-6M30 24l-7 6" fill="none" stroke="#d9b45e" stroke-width="4"/></g>
  <g transform="translate(144 432)"><rect width="48" height="48" fill="#7f9a72"/><rect y="6" width="48" height="36" fill="#d8cdb4"/><path d="M0 6h48M0 42h48" stroke="#b3a47c" stroke-width="3"/><path d="M38 12v24M38 24H18l7-6M18 24l7 6" fill="none" stroke="#d9b45e" stroke-width="4"/></g>
  <g transform="translate(192 432)"><rect width="48" height="48" fill="#4a5568"/><rect y="6" width="48" height="36" fill="#9aa7b8"/><path d="M0 6h48M0 42h48" stroke="#6d7c91" stroke-width="3"/></g>
  <g transform="translate(240 432)"><rect width="48" height="48" fill="#4a5568"/><rect x="6" width="36" height="48" fill="#9aa7b8"/><path d="M6 0v48M42 0v48" stroke="#6d7c91" stroke-width="3"/></g>
  <g transform="translate(288 432)"><rect width="48" height="48" fill="#4a5568"/><path d="M6 48V6h42v36H42V12H12v36z" fill="#9aa7b8"/><path d="M6 48V6h42M12 48V12h36" fill="none" stroke="#6d7c91" stroke-width="3"/></g>
  <g transform="translate(336 432)"><rect width="48" height="48" fill="#4a5568"/><path d="M6 6h36v36H6z" fill="#9aa7b8"/><rect y="6" width="48" height="36" fill="#9aa7b8"/><rect x="6" width="36" height="48" fill="#9aa7b8"/><path d="M6 0v6H0M42 0v6h6M6 48v-6H0M42 48v-6h6" fill="none" stroke="#6d7c91" stroke-width="3"/></g>
  <g transform="translate(384 432)"><rect width="48" height="48" fill="#4a5568"/><rect y="6" width="48" height="36" fill="#9aa7b8"/><path d="M0 6h48M0 42h48" stroke="#6d7c91" stroke-width="3"/><path d="M10 12v24M10 24h20l-7-6M30 24l-7 6" fill="none" stroke="#d9b45e" stroke-width="4"/></g>
  <g transform="translate(432 432)"><rect width="48" height="48" fill="#4a5568"/><rect y="6" width="48" height="36" fill="#9aa7b8"/><path d="M0 6h48M0 42h48" stroke="#6d7c91" stroke-width="3"/><path d="M38 12v24M38 24H18l7-6M18 24l7 6" fill="none" stroke="#d9b45e" stroke-width="4"/></g>
  <g transform="translate(480 432)"><rect width="48" height="48" fill="url(#grass)"/><path d="M6 48V14h10v34M32 48V14h10v34" fill="#9a9184" stroke="#5f5a53" stroke-width="3"/><path d="M2 14h44v8H2z" fill="#b3a47c" stroke="#5f5a53" stroke-width="3"/></g>
  <g transform="translate(528 432)"><rect width="48" height="48" fill="#557b68"/><path d="M17 44V10h14v34z" fill="#d5dee2" stroke="#8fa8b8" stroke-width="3"/><path d="M12 44h24M12 10h24" stroke="#b9c9d4" stroke-width="4"/></g>
  <g transform="translate(0 480)"><rect width="48" height="48" fill="#d8cdb4"/><path d="M14 46V36h20v10z" fill="#b3a47c" stroke="#8d8262" stroke-width="2"/><path d="M20 36V20h8v16z" fill="#e8e0cd" stroke="#8d8262" stroke-width="2"/><circle cx="24" cy="14" r="6" fill="#e8e0cd" stroke="#8d8262" stroke-width="2"/></g>
  <g transform="translate(48 480)"><rect width="48" height="48" fill="#9aa7b8"/><rect x="20" y="4" width="8" height="40" fill="#4a4a7a" stroke="#2e2e50" stroke-width="2"/><path d="M28 8h14v18l-7-5-7 5z" fill="#6a6ab0" stroke="#2e2e50" stroke-width="2"/></g>
  <g transform="translate(96 480)"><rect width="48" height="48" fill="url(#water)"/><rect x="4" y="16" width="40" height="16" fill="#8f7955" stroke="#5c4a2e" stroke-width="2"/><path d="M12 32v10M36 32v10" stroke="#5c4a2e" stroke-width="4"/></g>
  <g transform="translate(144 480)"><rect width="48" height="48" fill="url(#stone)"/><rect x="20" y="20" width="8" height="24" fill="#6a5236" stroke="#42311f" stroke-width="2"/><path d="M24 6c6 6 8 10 8 14a8 8 0 01-16 0c0-4 2-8 8-14z" fill="#f1a03f"/><path d="M24 14c3 4 4 6 4 8a4 4 0 01-8 0c0-2 1-4 4-8z" fill="#ffe08a"/></g>
  <g transform="translate(192 480)"><rect width="48" height="48" fill="#3a2c2a"/><path d="M8 44l6-16h20l6 16z" fill="#5a443d" stroke="#2a1e1c" stroke-width="2"/><path d="M18 28c2-8 10-8 12 0z" fill="#e46a3a"/><circle cx="24" cy="14" r="5" fill="#f1a03f" opacity="0.75"/></g>
  <g transform="translate(240 480)"><rect width="48" height="48" fill="#4f6f57"/><path d="M22 48V16h4v32z" fill="#3d3227"/><path d="M24 24l-10-8M24 30l12-9M24 18l-8-10M24 20l10-8" stroke="#3d3227" stroke-width="3" fill="none"/></g>
  <g transform="translate(288 480)"><rect width="48" height="48" fill="url(#grass)"/><rect x="5" y="5" width="38" height="38" rx="4" fill="#8fd27c" stroke="#eef8c9" stroke-width="3"/><path d="M14 24h20M24 14v20" stroke="#eef8c9" stroke-width="2" opacity="0.55"/></g>
  <g transform="translate(336 480)"><rect width="48" height="48" fill="#68aa5d"/><rect x="5" y="5" width="38" height="38" rx="4" fill="#9ad98a" stroke="#e4f5bd" stroke-width="3"/><path d="M14 24h20M24 14v20" stroke="#e4f5bd" stroke-width="2" opacity="0.55"/></g>
  <g transform="translate(384 480)"><rect width="48" height="48" fill="#e8f2f5"/><rect x="5" y="5" width="38" height="38" rx="4" fill="#bcd9c4" stroke="#ffffff" stroke-width="3"/><path d="M14 24h20M24 14v20" stroke="#ffffff" stroke-width="2" opacity="0.55"/></g>
  <g transform="translate(432 480)"><rect width="48" height="48" fill="#4f6f57"/><rect x="5" y="5" width="38" height="38" rx="4" fill="#7fa377" stroke="#d9e8a1" stroke-width="3"/><path d="M14 24h20M24 14v20" stroke="#d9e8a1" stroke-width="2" opacity="0.55"/></g>
  <g transform="translate(480 480)"><rect width="48" height="48" fill="#557b68"/><rect x="5" y="5" width="38" height="38" rx="4" fill="#8fb98d" stroke="#dceec2" stroke-width="3"/><path d="M14 24h20M24 14v20" stroke="#dceec2" stroke-width="2" opacity="0.55"/></g>
  <g transform="translate(528 480)"><rect width="48" height="48" fill="#6d8f6a"/><rect x="5" y="5" width="38" height="38" rx="4" fill="#a3c98d" stroke="#eef8c9" stroke-width="3"/><path d="M14 24h20M24 14v20" stroke="#eef8c9" stroke-width="2" opacity="0.55"/></g>
  <g transform="translate(0 528)"><rect width="48" height="48" fill="url(#water)"/><rect x="5" y="5" width="38" height="38" rx="4" fill="#9a9184" stroke="#d7e6ee" stroke-width="3"/><path d="M14 24h20M24 14v20" stroke="#d7e6ee" stroke-width="2" opacity="0.55"/></g>
  <g transform="translate(48 528)"><rect width="48" height="48" fill="url(#water)"/><rect x="5" y="5" width="38" height="38" rx="4" fill="#8f7955" stroke="#d9c79b" stroke-width="3"/><path d="M14 24h20M24 14v20" stroke="#d9c79b" stroke-width="2" opacity="0.55"/></g>
  <g transform="translate(96 528)"><rect width="48" height="48" fill="#3f82ad"/><rect x="5" y="5" width="38" height="38" rx="4" fill="#8aa8b5" stroke="#cfe4ea" stroke-width="3"/><path d="M14 24h20M24 14v20" stroke="#cfe4ea" stroke-width="2" opacity="0.55"/></g>
  <g transform="translate(144 528)"><rect width="48" height="48" fill="#b9dce5"/><rect x="5" y="5" width="38" height="38" rx="4" fill="#d9edf2" stroke="#ffffff" stroke-width="3"/><path d="M14 24h20M24 14v20" stroke="#ffffff" stroke-width="2" opacity="0.55"/></g>
  <g transform="translate(192 528)"><rect width="48" height="48" fill="#456657"/><rect x="5" y="5" width="38" height="38" rx="4" fill="#6f9a6a" stroke="#c9e6a8" stroke-width="3"/><path d="M14 24h20M24 14v20" stroke="#c9e6a8" stroke-width="2" opacity="0.55"/></g>
  <g transform="translate(240 528)"><rect width="48" height="48" fill="#4f91bd"/><rect x="5" y="5" width="38" height="38" rx="4" fill="#d8cdb4" stroke="#f0e8d2" stroke-width="3"/><path d="M14 24h20M24 14v20" stroke="#f0e8d2" stroke-width="2" opacity="0.55"/></g>
  <g transform="translate(288 528)"><rect width="48" height="48" fill="url(#stone)"/><rect x="5" y="5" width="38" height="38" rx="4" fill="#9a9184" stroke="#d7c99c" stroke-width="3"/><path d="M14 24h20M24 14v20" stroke="#d7c99c" stroke-width="2" opacity="0.55"/></g>
  <g transform="translate(336 528)"><rect width="48" height="48" fill="#3a2c2a"/><rect x="5" y="5" width="38" height="38" rx="4" fill="#6a5450" stroke="#e0a074" stroke-width="3"/><path d="M14 24h20M24 14v20" stroke="#e0a074" stroke-width="2" opacity="0.55"/></g>
  <g transform="translate(384 528)"><rect width="48" height="48" fill="#c6e1e8"/><rect x="5" y="5" width="38" height="38" rx="4" fill="#8fa8b8" stroke="#e8f2f5" stroke-width="3"/><path d="M14 24h20M24 14v20" stroke="#e8f2f5" stroke-width="2" opacity="0.55"/></g>
  <g transform="translate(432 528)"><rect width="48" height="48" fill="#557b68"/><rect x="5" y="5" width="38" height="38" rx="4" fill="#b9c9d4" stroke="#e2ecf0" stroke-width="3"/><path d="M14 24h20M24 14v20" stroke="#e2ecf0" stroke-width="2" opacity="0.55"/></g>
  <g transform="translate(480 528)"><rect width="48" height="48" fill="#7f9a72"/><rect x="5" y="5" width="38" height="38" rx="4" fill="#d8cdb4" stroke="#f0e8d2" stroke-width="3"/><path d="M14 24h20M24 14v20" stroke="#f0e8d2" stroke-width="2" opacity="0.55"/></g>
  <g transform="translate(528 528)"><rect width="48" height="48" fill="#4a5568"/><rect x="5" y="5" width="38" height="38" rx="4" fill="#9aa7b8" stroke="#d9b45e" stroke-width="3"/><path d="M14 24h20M24 14v20" stroke="#d9b45e" stroke-width="2" opacity="0.55"/></g>
</svg>
